<?xml version="1.0" encoding="UTF-8" standalone="no"?>
<!-- Created with Inkscape (http://www.inkscape.org/) -->

<svg
   xmlns:dc="http://purl.org/dc/elements/1.1/"
   xmlns:cc="http://creativecommons.org/ns#"
   xmlns:rdf="http://www.w3.org/1999/02/22-rdf-syntax-ns#"
   xmlns:svg="http://www.w3.org/2000/svg"
   xmlns="http://www.w3.org/2000/svg"
   xmlns:sodipodi="http://sodipodi.sourceforge.net/DTD/sodipodi-0.dtd"
   xmlns:inkscape="http://www.inkscape.org/namespaces/inkscape"
   width="301.18109"
   height="265.74802"
   id="svg2"
   version="1.1"
   inkscape:version="0.48.4 r9939"
   sodipodi:docname="New document 1">
  <defs
     id="defs4" />
  <sodipodi:namedview
     id="base"
     pagecolor="#ffffff"
     bordercolor="#666666"
     borderopacity="1.0"
     inkscape:pageopacity="0.0"
     inkscape:pageshadow="2"
     inkscape:zoom="1.8698198"
     inkscape:cx="150.7301"
     inkscape:cy="102.81576"
     inkscape:document-units="px"
     inkscape:current-layer="layer1"
     showgrid="false"
     fit-margin-top="0"
     fit-margin-left="0"
     fit-margin-right="0"
     fit-margin-bottom="0"
     units="mm"
     inkscape:window-width="1327"
     inkscape:window-height="950"
     inkscape:window-x="593"
     inkscape:window-y="25"
     inkscape:window-maximized="0" />
  <metadata
     id="metadata7">
    <rdf:RDF>
      <cc:Work
         rdf:about="">
        <dc:format>image/svg+xml</dc:format>
        <dc:type
           rdf:resource="http://purl.org/dc/dcmitype/StillImage" />
        <dc:title></dc:title>
      </cc:Work>
    </rdf:RDF>
  </metadata>
  <g
     inkscape:label="Layer 1"
     inkscape:groupmode="layer"
     id="layer1"
     transform="translate(-163.55562,-15.216454)">
    <g
       id="g3882"
       transform="translate(8.1101465,-1.5327893)">
      <path
         inkscape:connector-curvature="0"
         d="m 324.77017,196.52049 0.0637,0 0,0.0637 -0.0637,0 0,-0.0637 z"
         style="fill:#1c1c1a;fill-opacity:1;fill-rule:nonzero;stroke:none"
         id="path3202" />
      <path
         inkscape:connector-curvature="0"
         d="m 324.77017,196.52049 0.0637,0 0,0.0637 -0.0637,0 0,-0.0637 z"
         style="fill:#1c1c1a;fill-opacity:1;fill-rule:nonzero;stroke:none"
         id="path3204" />
      <path
         inkscape:connector-curvature="0"
         d="m 307.58767,113.27799 0.0637,0 0,0.0637 -0.0637,0 0,-0.0637 z"
         style="fill:#1c1c1a;fill-opacity:1;fill-rule:nonzero;stroke:none"
         id="path3206" />
      <path
         inkscape:connector-curvature="0"
         d="m 229.87267,115.40674 0.0637,0 0,0.0687 -0.0637,0 0,-0.0687 z"
         style="fill:#1c1c1a;fill-opacity:1;fill-rule:nonzero;stroke:none"
         id="path3208" />
      <path
         inkscape:connector-curvature="0"
         d="m 229.87267,115.40674 0.0637,0 0,0.0687 -0.0637,0 0,-0.0687 z"
         style="fill:#1c1c1a;fill-opacity:1;fill-rule:nonzero;stroke:none"
         id="path3210" />
      <path
         inkscape:connector-curvature="0"
         d="m 403.95017,133.25424 0.0637,0 0,0.0637 -0.0637,0 0,-0.0637 z"
         style="fill:#1c1c1a;fill-opacity:1;fill-rule:nonzero;stroke:none"
         id="path3212" />
      <path
         inkscape:connector-curvature="0"
         d="m 229.87267,115.40674 0.0637,0 0,0.0687 -0.0637,0 0,-0.0687 z"
         style="fill:#1c1c1a;fill-opacity:1;fill-rule:nonzero;stroke:none"
         id="path3214" />
      <path
         inkscape:connector-curvature="0"
         d="m 401.75267,147.23799 0.0637,0 0,0.0687 -0.0637,0 0,-0.0687 z"
         style="fill:#1c1c1a;fill-opacity:1;fill-rule:nonzero;stroke:none"
         id="path3216" />
      <path
         inkscape:connector-curvature="0"
         d="m 229.87267,115.40674 0.0637,0 0,0.0687 -0.0637,0 0,-0.0687 z"
         style="fill:#1c1c1a;fill-opacity:1;fill-rule:nonzero;stroke:none"
         id="path3218" />
      <path
         id="path3222"
         style="fill:none;stroke:#1c1c1a;stroke-width:0.5;stroke-linecap:butt;stroke-linejoin:miter;stroke-miterlimit:10;stroke-opacity:1;stroke-dasharray:none"
         d="m 448.26642,280.7145 -23.6425,-19.31125 m -5.99125,-4.92625 -23.91125,-19.5125 m -5.99125,-4.92625 -23.975,-19.51625 m -5.99125,-4.9275 -23.97375,-19.58 m -5.99625,-4.8575 -23.975,-19.58125 m -5.99125,-4.8625 -23.90625,-19.575 m -5.99625,-4.86375 -23.975,-19.58 m -5.99,-4.85875 -23.9075,-19.579997 m -5.995,-4.8625 -23.6425,-19.3125 m 131.39125,17.915 -23.6375,73.721247 m 38.35875,-68.993747 -25.5075,79.516247 m 25.5075,-79.516247 -14.72125,-4.7275 m -25.17125,-65.46375 9.39,19.64875 m 3.39875,6.9925 13.38375,27.83625 m 3.33,7.05625 13.38375,27.836247 m 3.33,6.9925 13.38875,27.905 m 3.325,6.9925 13.38875,27.9 m 3.39375,6.9925 13.38875,27.905 m 3.33,6.9925 9.38875,19.64375 m 5.59125,-141.313747 -28.56875,-4.19375 m -7.65625,-1.13375 -30.5675,-4.4575 m -7.5925,-1.06875 -30.56625,-4.45875 m -7.65625,-1.1325 -30.635,-4.53125 m -7.5925,-1.065 -30.635,-4.52625 m -7.5925,-1.06875 -28.56875,-4.195 m 156.16625,43.086247 -22.3775,69.795 m -38.89125,-31.7675 -5.05875,15.78125 m -2.53,7.7925 -4.995,15.71875 m 73.8525,-77.32 -15.04875,-4.85875 m 25.03875,25.64 -15.04875,-4.86375 m 25.035,25.64 -15.1125,-4.8625 m 25.1025,25.63875 -15.1175,-4.795 m 25.1075,25.64 -15.1175,-4.86375 m 25.04,25.64 -15.05,-4.8625 m -24.83875,-78.31125 -19.17875,59.8 m 29.165,-39.02375 -15.9825,49.74625 m 25.9725,-28.97 -12.78375,39.75625 m 22.77375,-18.91125 -9.59,29.7025 m 19.5125,-8.92625 -4.395,13.785 m -79.18,-64.46375 -14.71625,-4.72625 m 27.96875,15.3175 -15.1175,-4.795 m 27.905,15.44875 -14.72125,-4.72625 m -38.89125,-31.7675 -15.58125,-4.995 m -7.79375,-2.53 -15.64875,-4.995 m 105.82,59.8 -14.71625,-4.72625 m 27.9,15.5175 -14.7175,-4.795 m 27.90625,15.58125 -14.7175,-4.795 m 28.30125,15.65 -15.1175,-4.85875 M 301.29392,81.730753 280.31267,147.1945 m 35.6975,-60.732497 -14.71625,-4.73125 m -6.26,70.189997 -14.72125,-4.72625 M 285.77642,79.469503 267.46017,136.672 m 14.65375,4.795 -14.65375,-4.795 m 2.86625,-59.467497 -15.7175,49.013747 m 14.71625,4.72625 -14.71625,-4.72625 m 0.2,-51.279997 -13.05125,40.757497 m 14.71625,4.72625 -14.71625,-4.72625 m -2.46625,-43.022497 -10.39,32.499997 m 14.72125,4.72625 -14.72125,-4.72625 m -5.05875,-34.761247 -7.86125,24.3075 m 14.72125,4.72625 -14.72125,-4.72625 m -7.65625,-26.5725 -5.19625,16.05 m 14.7175,4.72625 -14.7175,-4.72625 m -10.32125,-18.31625 -2.53,7.79375"
         inkscape:connector-curvature="0" />
      <path
         id="path3226"
         style="fill:none;stroke:#000000;stroke-width:0.73452002;stroke-linecap:butt;stroke-linejoin:miter;stroke-miterlimit:4;stroke-opacity:1;stroke-dasharray:none"
         d="m 166.23017,65.514503 272.14875,0"
         inkscape:connector-curvature="0" />
      <path
         id="path3230"
         style="fill:none;stroke:#000000;stroke-width:0.7086612;stroke-linecap:butt;stroke-linejoin:miter;stroke-miterlimit:4;stroke-opacity:1;stroke-dasharray:none"
         d="m 323.92017,85.612003 113.2675,0"
         inkscape:connector-curvature="0" />
      <path
         id="path3234"
         style="fill:none;stroke:#000000;stroke-width:0.73414123;stroke-linecap:butt;stroke-linejoin:miter;stroke-miterlimit:4;stroke-opacity:1;stroke-dasharray:none"
         d="m 168.27642,237.84825 275.97625,0"
         inkscape:connector-curvature="0" />
      <path
         id="path3238"
         style="fill:none;stroke:#000000;stroke-width:1;stroke-linecap:butt;stroke-linejoin:miter;stroke-miterlimit:4;stroke-opacity:1;stroke-dasharray:none"
         d="M 185.68767,65.514503 324.53142,86.828253 397.60267,239.6745 185.68767,65.514503 z"
         inkscape:connector-curvature="0" />
      <path
         id="path3242"
         style="fill:none;stroke:#000000;stroke-width:1;stroke-linecap:butt;stroke-linejoin:miter;stroke-miterlimit:4;stroke-opacity:1;stroke-dasharray:none"
         d="m 395.17017,65.514503 0,19.4875"
         inkscape:connector-curvature="0" />
      <path
         id="path3246"
         style="fill:#000000;fill-opacity:1;fill-rule:evenodd;stroke:#000000;stroke-width:0.5;stroke-linecap:butt;stroke-linejoin:miter;stroke-miterlimit:4;stroke-opacity:1;stroke-dasharray:none"
         d="m 395.17017,69.513253 1.9975,2.0025 -1.9975,-7.0025 -2.00125,7.0025 2.00125,-2.0025 z"
         inkscape:connector-curvature="0" />
      <path
         id="path3250"
         style="fill:#000000;fill-opacity:1;fill-rule:evenodd;stroke:#000000;stroke-width:0.5;stroke-linecap:butt;stroke-linejoin:miter;stroke-miterlimit:4;stroke-opacity:1;stroke-dasharray:none"
         d="m 395.17017,81.003253 -2.00125,-2.0025 2.00125,7.0025 1.9975,-7.0025 -1.9975,2.0025 z"
         inkscape:connector-curvature="0" />
      <path
         id="path3254"
         style="fill:none;stroke:#000000;stroke-width:1;stroke-linecap:butt;stroke-linejoin:miter;stroke-miterlimit:4;stroke-opacity:1;stroke-dasharray:none"
         d="m 420.13642,85.612003 0,152.236247"
         inkscape:connector-curvature="0" />
      <path
         id="path3258"
         style="fill:#000000;fill-opacity:1;fill-rule:evenodd;stroke:#000000;stroke-width:0.5;stroke-linecap:butt;stroke-linejoin:miter;stroke-miterlimit:4;stroke-opacity:1;stroke-dasharray:none"
         d="m 420.13642,89.612003 1.9975,1.99625 -1.9975,-6.99625 -2.0025,6.99625 2.0025,-1.99625 z"
         inkscape:connector-curvature="0" />
      <path
         id="path3262"
         style="fill:#000000;fill-opacity:1;fill-rule:evenodd;stroke:#000000;stroke-width:0.5;stroke-linecap:butt;stroke-linejoin:miter;stroke-miterlimit:4;stroke-opacity:1;stroke-dasharray:none"
         d="m 420.13642,233.8495 -2.0025,-2.00125 2.0025,7.00125 1.9975,-7.00125 -1.9975,2.00125 z"
         inkscape:connector-curvature="0" />
      <path
         id="path3266"
         style="fill:none;stroke:#000000;stroke-width:1;stroke-linecap:butt;stroke-linejoin:miter;stroke-miterlimit:4;stroke-opacity:1;stroke-dasharray:none"
         d="m 177.77267,64.904503 0,172.333747"
         inkscape:connector-curvature="0" />
      <path
         id="path3270"
         style="fill:#000000;fill-opacity:1;fill-rule:evenodd;stroke:#000000;stroke-width:0.5;stroke-linecap:butt;stroke-linejoin:miter;stroke-miterlimit:4;stroke-opacity:1;stroke-dasharray:none"
         d="m 177.77267,68.908253 2.0025,1.9975 -2.0025,-6.9975 -1.99625,6.9975 1.99625,-1.9975 z"
         inkscape:connector-curvature="0" />
      <path
         id="path3274"
         style="fill:#000000;fill-opacity:1;fill-rule:evenodd;stroke:#000000;stroke-width:0.5;stroke-linecap:butt;stroke-linejoin:miter;stroke-miterlimit:4;stroke-opacity:1;stroke-dasharray:none"
         d="m 177.77267,233.2395 -1.99625,-2.0025 1.99625,7.0025 2.0025,-7.0025 -2.0025,2.0025 z"
         inkscape:connector-curvature="0" />
      <text
         style="font-size:15px"
         y="78.677261"
         x="403.61987"
         id="text3276">
        <tspan
           style="font-size:9px;font-variant:normal;font-weight:normal;writing-mode:lr-tb;fill:#000000;fill-opacity:1;fill-rule:nonzero;stroke:none;font-family:DejaVu Sans;-inkscape-font-specification:DejaVuSans"
           x="403.61987"
           y="78.677261"
           id="tspan3278">h</tspan>
      </text>
      <text
         style="font-size:15px"
         y="78.677261"
         x="409.31686"
         id="text3280">
        <tspan
           style="font-size:9px;font-variant:normal;font-weight:normal;writing-mode:lr-tb;fill:#000000;fill-opacity:1;fill-rule:nonzero;stroke:none;font-family:Kedage;-inkscape-font-specification:KedageNormal"
           x="409.31686"
           y="78.677261"
           id="tspan3282">2</tspan>
      </text>
      <text
         style="font-size:15px"
         y="165.14815"
         x="423.71521"
         id="text3284">
        <tspan
           style="font-size:9px;font-variant:normal;font-weight:normal;writing-mode:lr-tb;fill:#000000;fill-opacity:1;fill-rule:nonzero;stroke:none;font-family:DejaVu Sans;-inkscape-font-specification:DejaVuSans"
           x="423.71521"
           y="165.14815"
           id="tspan3286">h</tspan>
      </text>
      <text
         style="font-size:15px"
         y="165.14815"
         x="429.4122"
         id="text3288">
        <tspan
           style="font-size:9px;font-variant:normal;font-weight:normal;writing-mode:lr-tb;fill:#000000;fill-opacity:1;fill-rule:nonzero;stroke:none;font-family:Kedage;-inkscape-font-specification:KedageNormal"
           x="429.4122"
           y="165.14815"
           id="tspan3290">1</tspan>
      </text>
      <text
         style="font-size:15px"
         y="154.4915"
         x="162.73824"
         id="text3292">
        <tspan
           style="font-size:9px;font-variant:normal;font-weight:normal;writing-mode:lr-tb;fill:#000000;fill-opacity:1;fill-rule:nonzero;stroke:none;font-family:DejaVu Sans;-inkscape-font-specification:DejaVuSans"
           x="162.73824"
           y="154.4915"
           id="tspan3294">h</tspan>
      </text>
      <path
         id="path3298"
         style="fill:none;stroke:#000000;stroke-width:1;stroke-linecap:butt;stroke-linejoin:miter;stroke-miterlimit:4;stroke-opacity:1;stroke-dasharray:none"
         d="m 302.00142,129.45575 15.83,4.8725"
         inkscape:connector-curvature="0" />
      <path
         id="path3302"
         style="fill:#000000;fill-opacity:1;fill-rule:evenodd;stroke:#000000;stroke-width:0.5000006;stroke-linecap:butt;stroke-linejoin:miter;stroke-miterlimit:4;stroke-opacity:1;stroke-dasharray:none"
         d="m 305.82525,130.6321 2.49519,-1.32308 -7.27558,-0.14644 6.10317,3.9701 -1.32278,-2.50058 z"
         inkscape:connector-curvature="0" />
      <path
         id="path3306"
         style="fill:#000000;fill-opacity:1;fill-rule:evenodd;stroke:#000000;stroke-width:0.5000006;stroke-linecap:butt;stroke-linejoin:miter;stroke-miterlimit:4;stroke-opacity:1;stroke-dasharray:none"
         d="m 314.00861,133.15143 -2.50058,1.32279 7.28097,0.14673 -6.10356,-3.96885 1.32317,2.49933 z"
         inkscape:connector-curvature="0" />
      <text
         style="font-size:15px"
         y="146.50545"
         x="305.10443"
         id="text3308">
        <tspan
           style="font-size:9px;font-variant:normal;font-weight:normal;writing-mode:lr-tb;fill:#000000;fill-opacity:1;fill-rule:nonzero;stroke:none;font-family:DejaVu Sans;-inkscape-font-specification:DejaVuSans"
           x="305.10443"
           y="146.50545"
           id="tspan3310">t</tspan>
      </text>
      <path
         id="path3314"
         style="fill:#ffffff;fill-opacity:1;fill-rule:nonzero;stroke:#000000;stroke-width:0.30472875;stroke-linecap:butt;stroke-linejoin:miter;stroke-miterlimit:4;stroke-opacity:1;stroke-dasharray:none"
         d="m 189.43767,66.095753 c 0,1.38625 -1.1175,2.505 -2.505,2.505 -1.38125,0 -2.505,-1.11875 -2.505,-2.505 0,-1.38125 1.12375,-2.505 2.505,-2.505 1.3875,0 2.505,1.12375 2.505,2.505 z"
         inkscape:connector-curvature="0" />
      <path
         id="path3318"
         style="fill:#ffffff;fill-opacity:1;fill-rule:nonzero;stroke:#000000;stroke-width:0.30472875;stroke-linecap:butt;stroke-linejoin:miter;stroke-miterlimit:4;stroke-opacity:1;stroke-dasharray:none"
         d="m 327.64642,87.438253 c 0,1.3825 -1.12375,2.505 -2.505,2.505 -1.3875,0 -2.505,-1.1225 -2.505,-2.505 0,-1.38625 1.1175,-2.505 2.505,-2.505 1.38125,0 2.505,1.11875 2.505,2.505 z"
         inkscape:connector-curvature="0" />
      <path
         id="path3322"
         style="fill:#ffffff;fill-opacity:1;fill-rule:nonzero;stroke:#000000;stroke-width:0.30472875;stroke-linecap:butt;stroke-linejoin:miter;stroke-miterlimit:4;stroke-opacity:1;stroke-dasharray:none"
         d="m 399.50142,237.84825 c 0,1.3825 -1.1225,2.505 -2.505,2.505 -1.38625,0 -2.505,-1.1225 -2.505,-2.505 0,-1.38625 1.11875,-2.50375 2.505,-2.50375 1.3825,0 2.505,1.1175 2.505,2.50375 z"
         inkscape:connector-curvature="0" />
      <text
         style="font-size:15px"
         y="59.730129"
         x="178.3512"
         id="text3324">
        <tspan
           style="font-size:9px;font-variant:normal;font-weight:normal;writing-mode:lr-tb;fill:#000000;fill-opacity:1;fill-rule:nonzero;stroke:none;font-family:DejaVu Sans;-inkscape-font-specification:DejaVuSans"
           x="178.3512"
           y="59.730129"
           id="tspan3326">A</tspan>
        <tspan
           style="font-size:9px;font-variant:normal;font-weight:normal;writing-mode:lr-tb;fill:#000000;fill-opacity:1;fill-rule:nonzero;stroke:none;font-family:DejaVu Sans;-inkscape-font-specification:DejaVuSans"
           x="327.23062"
           y="80.129944"
           id="tspan3328">B</tspan>
        <tspan
           style="font-size:9px;font-variant:normal;font-weight:normal;writing-mode:lr-tb;fill:#000000;fill-opacity:1;fill-rule:nonzero;stroke:none;font-family:DejaVu Sans;-inkscape-font-specification:DejaVuSans"
           x="399.93857"
           y="232.06294"
           id="tspan3330">C</tspan>
        <tspan
           style="font-size:9px;font-variant:normal;font-weight:normal;writing-mode:lr-tb;fill:#000000;fill-opacity:1;fill-rule:nonzero;stroke:none;font-family:DejaVu Sans;-inkscape-font-specification:DejaVuSans"
           x="285.74606"
           y="164.77396"
           id="tspan3332">b</tspan>
        <tspan
           style="font-size:9px;font-variant:normal;font-weight:normal;writing-mode:lr-tb;fill:#000000;fill-opacity:1;fill-rule:nonzero;stroke:none;font-family:DejaVu Sans;-inkscape-font-specification:DejaVuSans"
           x="365.3107"
           y="156.24866"
           id="tspan3334">a</tspan>
        <tspan
           style="font-size:9px;font-variant:normal;font-weight:normal;writing-mode:lr-tb;fill:#000000;fill-opacity:1;fill-rule:nonzero;stroke:none;font-family:DejaVu Sans;-inkscape-font-specification:DejaVuSans"
           x="268.46448"
           y="74.040436"
           id="tspan3336">c</tspan>
      </text>
      <path
         id="path3340"
         style="fill:none;stroke:#000000;stroke-width:0.7086612;stroke-linecap:round;stroke-linejoin:miter;stroke-miterlimit:4;stroke-opacity:1;stroke-dasharray:none"
         d="m 367.57767,237.1895 c 0,-11.58625 7.11375,-21.9875 17.915,-26.19125 l 10.195,26.19125 -28.11,0 z"
         inkscape:connector-curvature="0" />
      <path
         id="path3344"
         style="fill:none;stroke:#000000;stroke-width:0.7086612;stroke-linecap:round;stroke-linejoin:miter;stroke-miterlimit:4;stroke-opacity:1;stroke-dasharray:none"
         d="m 202.93892,68.532003 c -0.5075,3.2625 -1.9825,6.29375 -4.2425,8.69625 l -11.92375,-11.19625 16.16625,2.5 z"
         inkscape:connector-curvature="0" />
      <path
         id="path3348"
         style="fill:none;stroke:#000000;stroke-width:0.7086612;stroke-linecap:round;stroke-linejoin:miter;stroke-miterlimit:4;stroke-opacity:1;stroke-dasharray:none"
         d="m 332.76267,104.33325 c -9.335,4.63875 -20.66875,0.825 -25.3025,-8.516247 -1.7725,-3.56875 -2.3675,-7.6075 -1.70375,-11.5375 l 18.61375,3.145 8.3925,16.908747 z"
         inkscape:connector-curvature="0" />
      <text
         style="font-size:15px"
         y="61.798389"
         x="197.81862"
         id="text3350">
        <tspan
           style="font-size:9px;font-variant:normal;font-weight:normal;writing-mode:lr-tb;fill:#000000;fill-opacity:1;fill-rule:nonzero;stroke:none;font-family:DejaVu Sans;-inkscape-font-specification:DejaVuSans"
           x="197.81862 203.32661 205.81963 211.52562 217.22263"
           y="61.798389"
           sodipodi:role="line"
           id="tspan3352">alpha</tspan>
        <tspan
           style="font-size:9px;font-variant:normal;font-weight:normal;writing-mode:lr-tb;fill:#000000;fill-opacity:1;fill-rule:nonzero;stroke:none;font-family:DejaVu Sans;-inkscape-font-specification:DejaVuSans"
           x="336.60242 342.30844 347.84344 351.37143"
           y="102.43816"
           sodipodi:role="line"
           id="tspan3354">beta</tspan>
        <tspan
           style="font-size:9px;font-variant:normal;font-weight:normal;writing-mode:lr-tb;fill:#000000;fill-opacity:1;fill-rule:nonzero;stroke:none;font-family:DejaVu Sans;-inkscape-font-specification:DejaVuSans"
           x="337.32986 343.03586 348.57086 352.09885 357.60684"
           y="235.03651"
           sodipodi:role="line"
           id="tspan3356">betaR</tspan>
      </text>
      <path
         id="path3360"
         style="fill:none;stroke:#000000;stroke-width:1.1171912;stroke-linecap:round;stroke-linejoin:miter;stroke-miterlimit:4;stroke-opacity:1;stroke-dasharray:none"
         d="m 361.56267,209.777 c 4.31625,-5.18 9.755,-9.30625 15.9025,-12.065 l 18.14,40.43 -34.0425,-28.365 z"
         inkscape:connector-curvature="0" />
      <text
         style="font-size:15px"
         y="186.09084"
         x="377.06885"
         id="text3362">
        <tspan
           style="font-size:9px;font-variant:normal;font-weight:normal;writing-mode:lr-tb;fill:#000000;fill-opacity:1;fill-rule:nonzero;stroke:none;font-family:DejaVu Sans;-inkscape-font-specification:DejaVuSans"
           x="377.06885 382.77484 388.28284 397.04883 405.81485"
           y="186.09084"
           sodipodi:role="line"
           id="tspan3364">gamma</tspan>
      </text>
      <path
         id="path3368"
         style="fill:none;stroke:#000000;stroke-width:0.7086612;stroke-linecap:round;stroke-linejoin:miter;stroke-miterlimit:4;stroke-opacity:1;stroke-dasharray:none"
         d="m 273.69142,117.927 c 8.6475,3.06125 13.17375,12.55375 10.11125,21.20625 -0.625,1.7575 -1.5425,3.4025 -2.71375,4.8625 l -12.945,-10.41 5.5475,-15.65875 z"
         inkscape:connector-curvature="0" />
      <text
         style="font-size:15px"
         y="115.1937"
         x="268.38831"
         id="text3370">
        <tspan
           style="font-size:9px;font-variant:normal;font-weight:normal;writing-mode:lr-tb;fill:#000000;fill-opacity:1;fill-rule:nonzero;stroke:none;font-family:DejaVu Sans;-inkscape-font-specification:DejaVuSans"
           x="268.38831 271.91632 277.61331 283.14832 286.67633"
           y="115.1937"
           sodipodi:role="line"
           id="tspan3372">theta</tspan>
      </text>
    </g>
  </g>
</svg>
