<?xml version="1.0" encoding="UTF-8" standalone="no"?>
<!-- Created with Inkscape (http://www.inkscape.org/) -->

<svg
   xmlns:dc="http://purl.org/dc/elements/1.1/"
   xmlns:cc="http://creativecommons.org/ns#"
   xmlns:rdf="http://www.w3.org/1999/02/22-rdf-syntax-ns#"
   xmlns:svg="http://www.w3.org/2000/svg"
   xmlns="http://www.w3.org/2000/svg"
   xmlns:sodipodi="http://sodipodi.sourceforge.net/DTD/sodipodi-0.dtd"
   xmlns:inkscape="http://www.inkscape.org/namespaces/inkscape"
   width="336.61417"
   height="230.31496"
   id="svg2"
   version="1.1"
   inkscape:version="0.48.4 r9939"
   sodipodi:docname="New document 1">
  <defs
     id="defs4">
    <clipPath
       id="clipPath3720"
       clipPathUnits="userSpaceOnUse">
      <path
         id="path3722"
         d="m 150.009,710.022 312.945,0 0,-184.989 -312.945,0 0,184.989 z"
         inkscape:connector-curvature="0" />
    </clipPath>
    <clipPath
       id="clipPath3704"
       clipPathUnits="userSpaceOnUse">
      <path
         id="path3706"
         d="m 150.009,710.022 312.945,0 0,-184.989 -312.945,0 0,184.989 z"
         inkscape:connector-curvature="0" />
    </clipPath>
    <clipPath
       id="clipPath3686"
       clipPathUnits="userSpaceOnUse">
      <path
         id="path3688"
         d="m 150.009,710.022 312.945,0 0,-184.989 -312.945,0 0,184.989 z"
         inkscape:connector-curvature="0" />
    </clipPath>
  </defs>
  <sodipodi:namedview
     id="base"
     pagecolor="#ffffff"
     bordercolor="#666666"
     borderopacity="1.0"
     inkscape:pageopacity="0.0"
     inkscape:pageshadow="2"
     inkscape:zoom="1.4936869"
     inkscape:cx="293.78556"
     inkscape:cy="128.04015"
     inkscape:document-units="px"
     inkscape:current-layer="layer1"
     showgrid="false"
     showguides="true"
     inkscape:guide-bbox="true"
     fit-margin-top="0"
     fit-margin-left="0"
     fit-margin-right="0"
     fit-margin-bottom="0"
     units="mm"
     inkscape:window-width="1128"
     inkscape:window-height="972"
     inkscape:window-x="795"
     inkscape:window-y="80"
     inkscape:window-maximized="0" />
  <metadata
     id="metadata7">
    <rdf:RDF>
      <cc:Work
         rdf:about="">
        <dc:format>image/svg+xml</dc:format>
        <dc:type
           rdf:resource="http://purl.org/dc/dcmitype/StillImage" />
        <dc:title></dc:title>
      </cc:Work>
    </rdf:RDF>
  </metadata>
  <g
     inkscape:label="Layer 1"
     inkscape:groupmode="layer"
     id="layer1"
     transform="translate(-238.79457,-107.19964)">
    <text
       id="text3082"
       x="60.793007"
       y="828.07825"
       style="font-size:15px">
      <tspan
         id="tspan3084"
         y="828.07825"
         x="60.793007"
         style="font-size:12.50012493px;font-variant:normal;font-weight:normal;writing-mode:lr-tb;fill:#1c1c1a;fill-opacity:1;fill-rule:nonzero;stroke:none;font-family:AdvP400E74;-inkscape-font-specification:AdvP400E74"></tspan>
    </text>
    <text
       id="text3174"
       x="60.793255"
       y="860.96039"
       style="font-size:15px">
      <tspan
         id="tspan3176"
         y="860.96039"
         x="60.793255"
         style="font-size:12.50012493px;font-variant:normal;font-weight:normal;writing-mode:lr-tb;fill:#1c1c1a;fill-opacity:1;fill-rule:nonzero;stroke:none;font-family:AdvP400E74;-inkscape-font-specification:AdvP400E74"></tspan>
    </text>
    <text
       id="text3258"
       x="60.792374"
       y="916.80347"
       style="font-size:15px">
      <tspan
         id="tspan3260"
         y="916.80347"
         x="60.792374"
         style="font-size:12.50012493px;font-variant:normal;font-weight:normal;writing-mode:lr-tb;fill:#1c1c1a;fill-opacity:1;fill-rule:nonzero;stroke:none;font-family:AdvP400E74;-inkscape-font-specification:AdvP400E74"></tspan>
    </text>
    <text
       id="text3442"
       x="260.91797"
       y="925.37781"
       style="font-size:15px">
      <tspan
         id="tspan3444"
         y="925.37781"
         x="260.91797"
         style="font-size:12.50012493px;font-variant:normal;font-weight:normal;writing-mode:lr-tb;fill:#1c1c1a;fill-opacity:1;fill-rule:nonzero;stroke:none;font-family:AdvP400E74;-inkscape-font-specification:AdvP400E74"></tspan>
    </text>
    <text
       id="text3514"
       x="394.50186"
       y="819.29071"
       style="font-size:15px">
      <tspan
         id="tspan3516"
         y="819.29071"
         x="394.50186"
         style="font-size:12.50012493px;font-variant:normal;font-weight:normal;writing-mode:lr-tb;fill:#1c1c1a;fill-opacity:1;fill-rule:nonzero;stroke:none;font-family:AdvP400E74;-inkscape-font-specification:AdvP400E74"></tspan>
    </text>
    <path
       style="fill:none;stroke:#000000;stroke-width:0.5;stroke-linecap:butt;stroke-linejoin:miter;stroke-miterlimit:10;stroke-opacity:1;stroke-dasharray:none"
       d="m 419.66295,128.61647 -19.09125,-11.32"
       id="path9678"
       inkscape:connector-curvature="0" />
    <path
       style="fill:none;stroke:#000000;stroke-width:0.5;stroke-linecap:butt;stroke-linejoin:miter;stroke-miterlimit:10;stroke-opacity:1;stroke-dasharray:none"
       d="m 271.9042,119.86272 -19.0925,-11.32"
       id="path9642"
       inkscape:connector-curvature="0" />
    <path
       style="fill:none;stroke:#000000;stroke-width:0.5;stroke-linecap:butt;stroke-linejoin:miter;stroke-miterlimit:10;stroke-opacity:1;stroke-dasharray:none"
       d="m 547.19795,336.67147 -12.15,-18.9425"
       id="path9630"
       inkscape:connector-curvature="0" />
    <path
       style="fill:none;stroke:#000000;stroke-width:0.5;stroke-linecap:butt;stroke-linejoin:miter;stroke-miterlimit:10;stroke-opacity:1;stroke-dasharray:none"
       d="M 531.42545,312.06897 516.8617,289.35522"
       id="path9628"
       inkscape:connector-curvature="0" />
    <path
       style="fill:none;stroke:#000000;stroke-width:0.5;stroke-linecap:butt;stroke-linejoin:miter;stroke-miterlimit:10;stroke-opacity:1;stroke-dasharray:none"
       d="m 513.2392,283.69522 -14.565,-22.715"
       id="path9626"
       inkscape:connector-curvature="0" />
    <path
       style="fill:none;stroke:#000000;stroke-width:0.5;stroke-linecap:butt;stroke-linejoin:miter;stroke-miterlimit:10;stroke-opacity:1;stroke-dasharray:none"
       d="m 495.0517,255.32022 -14.56375,-22.715"
       id="path9624"
       inkscape:connector-curvature="0" />
    <path
       style="fill:none;stroke:#000000;stroke-width:0.5;stroke-linecap:butt;stroke-linejoin:miter;stroke-miterlimit:10;stroke-opacity:1;stroke-dasharray:none"
       d="m 476.86545,226.94647 -14.565,-22.64"
       id="path9622"
       inkscape:connector-curvature="0" />
    <path
       style="fill:none;stroke:#000000;stroke-width:0.5;stroke-linecap:butt;stroke-linejoin:miter;stroke-miterlimit:10;stroke-opacity:1;stroke-dasharray:none"
       d="M 458.67795,198.57147 444.1142,175.93272"
       id="path9620"
       inkscape:connector-curvature="0" />
    <path
       style="fill:none;stroke:#000000;stroke-width:0.5;stroke-linecap:butt;stroke-linejoin:miter;stroke-miterlimit:10;stroke-opacity:1;stroke-dasharray:none"
       d="m 440.4167,170.27272 -14.49,-22.715"
       id="path9618"
       inkscape:connector-curvature="0" />
    <path
       style="fill:none;stroke:#000000;stroke-width:0.5;stroke-linecap:butt;stroke-linejoin:miter;stroke-miterlimit:10;stroke-opacity:1;stroke-dasharray:none"
       d="M 422.2292,141.89772 410.15545,122.95647"
       id="path9616"
       inkscape:connector-curvature="0" />
    <path
       style="fill:none;stroke:#000000;stroke-width:0.5;stroke-linecap:butt;stroke-linejoin:miter;stroke-miterlimit:10;stroke-opacity:1;stroke-dasharray:none"
       d="m 410.15545,122.95647 -29.5825,-1.81125"
       id="path9614"
       inkscape:connector-curvature="0" />
    <path
       style="fill:none;stroke:#000000;stroke-width:0.5;stroke-linecap:butt;stroke-linejoin:miter;stroke-miterlimit:10;stroke-opacity:1;stroke-dasharray:none"
       d="m 373.9317,120.76772 -26.4125,-1.66"
       id="path9612"
       inkscape:connector-curvature="0" />
    <path
       style="fill:none;stroke:#000000;stroke-width:0.5;stroke-linecap:butt;stroke-linejoin:miter;stroke-miterlimit:10;stroke-opacity:1;stroke-dasharray:none"
       d="m 340.9542,118.73022 -26.4125,-1.585"
       id="path9610"
       inkscape:connector-curvature="0" />
    <path
       style="fill:none;stroke:#000000;stroke-width:0.5;stroke-linecap:butt;stroke-linejoin:miter;stroke-miterlimit:10;stroke-opacity:1;stroke-dasharray:none"
       d="m 307.9767,116.76897 -26.4125,-1.66125"
       id="path9608"
       inkscape:connector-curvature="0" />
    <path
       style="fill:none;stroke:#000000;stroke-width:0.5;stroke-linecap:butt;stroke-linejoin:miter;stroke-miterlimit:10;stroke-opacity:1;stroke-dasharray:none"
       d="m 274.9992,114.73147 -29.5825,-1.81125"
       id="path9606"
       inkscape:connector-curvature="0" />
    <path
       style="fill:none;stroke:#000000;stroke-width:0.5;stroke-linecap:butt;stroke-linejoin:miter;stroke-miterlimit:10;stroke-opacity:1;stroke-dasharray:none"
       d="m 410.15545,122.95647 140.13625,0"
       id="path3692"
       inkscape:connector-curvature="0" />
    <path
       style="fill:none;stroke:#1c1c1a;stroke-width:0.5;stroke-linecap:butt;stroke-linejoin:miter;stroke-miterlimit:10;stroke-opacity:1;stroke-dasharray:none"
       d="m 541.7642,318.93647 -4.82875,8.67875"
       id="path9568"
       inkscape:connector-curvature="0" />
    <path
       style="fill:none;stroke:#1c1c1a;stroke-width:0.5;stroke-linecap:butt;stroke-linejoin:miter;stroke-miterlimit:10;stroke-opacity:1;stroke-dasharray:none"
       d="m 541.84045,318.78647 -2.7175,-4.3025"
       id="path9532"
       inkscape:connector-curvature="0" />
    <path
       style="fill:none;stroke:#1c1c1a;stroke-width:0.5;stroke-linecap:butt;stroke-linejoin:miter;stroke-miterlimit:10;stroke-opacity:1;stroke-dasharray:none"
       d="m 537.1617,311.46647 -3.84875,-5.9625"
       id="path9530"
       inkscape:connector-curvature="0" />
    <path
       style="fill:none;stroke:#1c1c1a;stroke-width:0.5;stroke-linecap:butt;stroke-linejoin:miter;stroke-miterlimit:10;stroke-opacity:1;stroke-dasharray:none"
       d="m 531.35045,302.48522 -3.84875,-5.96125"
       id="path9528"
       inkscape:connector-curvature="0" />
    <path
       style="fill:none;stroke:#1c1c1a;stroke-width:0.5;stroke-linecap:butt;stroke-linejoin:miter;stroke-miterlimit:10;stroke-opacity:1;stroke-dasharray:none"
       d="m 525.61545,293.50522 -3.84875,-6.0375"
       id="path9526"
       inkscape:connector-curvature="0" />
    <path
       style="fill:none;stroke:#1c1c1a;stroke-width:0.5;stroke-linecap:butt;stroke-linejoin:miter;stroke-miterlimit:10;stroke-opacity:1;stroke-dasharray:none"
       d="m 519.8042,284.52522 -3.84875,-6.0375"
       id="path9524"
       inkscape:connector-curvature="0" />
    <path
       style="fill:none;stroke:#1c1c1a;stroke-width:0.5;stroke-linecap:butt;stroke-linejoin:miter;stroke-miterlimit:10;stroke-opacity:1;stroke-dasharray:none"
       d="m 514.0692,275.47022 -3.84875,-5.9625"
       id="path9522"
       inkscape:connector-curvature="0" />
    <path
       inkscape:connector-curvature="0"
       style="fill:none;stroke:#1c1c1a;stroke-width:0.5;stroke-linecap:butt;stroke-linejoin:miter;stroke-miterlimit:10;stroke-opacity:1;stroke-dasharray:none"
       d="m 547.19795,336.67147 -14.1875,-10.56625"
       id="path9706" />
    <path
       inkscape:connector-curvature="0"
       style="fill:none;stroke:#1c1c1a;stroke-width:0.5;stroke-linecap:butt;stroke-linejoin:miter;stroke-miterlimit:10;stroke-opacity:1;stroke-dasharray:none"
       d="m 527.65295,322.18147 -21.4325,-15.9225"
       id="path9704" />
    <path
       inkscape:connector-curvature="0"
       style="fill:none;stroke:#1c1c1a;stroke-width:0.5;stroke-linecap:butt;stroke-linejoin:miter;stroke-miterlimit:10;stroke-opacity:1;stroke-dasharray:none"
       d="M 500.86295,302.25897 479.4317,286.41147"
       id="path9702" />
    <path
       inkscape:connector-curvature="0"
       style="fill:none;stroke:#1c1c1a;stroke-width:0.5;stroke-linecap:butt;stroke-linejoin:miter;stroke-miterlimit:10;stroke-opacity:1;stroke-dasharray:none"
       d="m 474.07295,282.41147 -21.5075,-15.9225"
       id="path9700" />
    <path
       inkscape:connector-curvature="0"
       style="fill:none;stroke:#1c1c1a;stroke-width:0.5;stroke-linecap:butt;stroke-linejoin:miter;stroke-miterlimit:10;stroke-opacity:1;stroke-dasharray:none"
       d="M 447.20795,262.56522 425.7767,246.64272"
       id="path9698" />
    <path
       inkscape:connector-curvature="0"
       style="fill:none;stroke:#1c1c1a;stroke-width:0.5;stroke-linecap:butt;stroke-linejoin:miter;stroke-miterlimit:10;stroke-opacity:1;stroke-dasharray:none"
       d="M 420.41795,242.64272 398.9867,226.79522"
       id="path9696" />
    <path
       inkscape:connector-curvature="0"
       style="fill:none;stroke:#1c1c1a;stroke-width:0.5;stroke-linecap:butt;stroke-linejoin:miter;stroke-miterlimit:10;stroke-opacity:1;stroke-dasharray:none"
       d="M 393.62795,222.79522 372.1967,206.87272"
       id="path9694" />
    <path
       inkscape:connector-curvature="0"
       style="fill:none;stroke:#1c1c1a;stroke-width:0.5;stroke-linecap:butt;stroke-linejoin:miter;stroke-miterlimit:10;stroke-opacity:1;stroke-dasharray:none"
       d="M 366.83795,202.94897 345.3317,187.02522"
       id="path9692" />
    <path
       inkscape:connector-curvature="0"
       style="fill:none;stroke:#1c1c1a;stroke-width:0.5;stroke-linecap:butt;stroke-linejoin:miter;stroke-miterlimit:10;stroke-opacity:1;stroke-dasharray:none"
       d="M 339.97295,183.02647 318.5417,167.17772"
       id="path9690" />
    <path
       inkscape:connector-curvature="0"
       style="fill:none;stroke:#1c1c1a;stroke-width:0.5;stroke-linecap:butt;stroke-linejoin:miter;stroke-miterlimit:10;stroke-opacity:1;stroke-dasharray:none"
       d="M 313.18295,163.17897 291.7517,147.25522"
       id="path9688" />
    <path
       inkscape:connector-curvature="0"
       style="fill:none;stroke:#1c1c1a;stroke-width:0.5;stroke-linecap:butt;stroke-linejoin:miter;stroke-miterlimit:10;stroke-opacity:1;stroke-dasharray:none"
       d="M 286.39295,143.33147 264.9617,127.40897"
       id="path9686" />
    <path
       inkscape:connector-curvature="0"
       style="fill:none;stroke:#1c1c1a;stroke-width:0.5;stroke-linecap:butt;stroke-linejoin:miter;stroke-miterlimit:10;stroke-opacity:1;stroke-dasharray:none"
       d="M 259.6042,123.40897 245.4167,112.92022"
       id="path3724" />
    <path
       id="path3708"
       style="fill:none;stroke:#1c1c1a;stroke-width:0.5;stroke-linecap:butt;stroke-linejoin:miter;stroke-miterlimit:10;stroke-opacity:1;stroke-dasharray:none"
       d="m 552.2917,122.95647 15.7725,0 m -15.7725,213.715 15.7725,0 m -2.7175,-208.055 0,88.44375 m 0,113.95125 0,-88.445 m 1.435,-113.95 -1.435,-5.66 -1.50875,5.66 m 1.50875,-5.66 0,5.66 m -1.50875,202.395 1.50875,5.66 1.435,-5.66 m -1.435,5.66 0,-5.66"
       inkscape:connector-curvature="0" />
    <path
       id="path3726"
       style="fill:#1c1c1a;fill-opacity:1;fill-rule:nonzero;stroke:none"
       d="m 561.92415,228.28647 3.85,0 0.61125,-2.0625 c 0.11375,-0.40125 0.1725,-0.71125 0.1725,-0.935 0,-0.10625 -0.0275,-0.19625 -0.0775,-0.2725 -0.0512,-0.075 -0.13,-0.1325 -0.2375,-0.17 -0.1075,-0.0362 -0.315,-0.055 -0.62875,-0.055 l 0.0637,-0.22875 3.35875,0 -0.0737,0.22875 c -0.28375,-0.004 -0.49375,0.0238 -0.635,0.0863 -0.195,0.0863 -0.3425,0.1975 -0.43625,0.3325 -0.135,0.1925 -0.27375,0.53125 -0.41125,1.01375 l -1.47125,5.04125 c -0.12375,0.4175 -0.185,0.71875 -0.185,0.8975 0,0.15625 0.055,0.27375 0.16375,0.35375 0.1075,0.08 0.3675,0.135 0.7775,0.165 l -0.0662,0.22625 -3.25,0 0.0863,-0.22625 c 0.31875,-0.009 0.53375,-0.0388 0.64,-0.0863 0.16375,-0.0763 0.28375,-0.17 0.3575,-0.28375 0.105,-0.16 0.2375,-0.50875 0.3925,-1.04625 l 0.7525,-2.55375 -3.87125,0 -0.75875,2.55375 c -0.1175,0.40875 -0.17625,0.71 -0.17625,0.8975 0,0.15625 0.0525,0.27375 0.16,0.35375 0.105,0.08 0.365,0.135 0.775,0.165 l -0.05,0.22625 -3.2725,0 0.08,-0.22625 c 0.32375,-0.009 0.53875,-0.0388 0.64625,-0.0863 0.16375,-0.0763 0.28375,-0.17 0.36125,-0.28375 0.1075,-0.16875 0.24,-0.5175 0.395,-1.04625 l 1.47625,-5.04125 c 0.12,-0.40875 0.17875,-0.72 0.17875,-0.935 0,-0.10625 -0.025,-0.19625 -0.0775,-0.2725 -0.05,-0.075 -0.13,-0.1325 -0.24,-0.17 -0.10875,-0.0362 -0.32125,-0.055 -0.63625,-0.055 l 0.0738,-0.22875 3.29125,0 -0.0675,0.22875 c -0.275,-0.004 -0.47625,0.0238 -0.60875,0.0863 -0.19375,0.0825 -0.33375,0.19125 -0.42375,0.32625 -0.125,0.18 -0.25875,0.52 -0.40625,1.02 l -0.6025,2.0625"
       inkscape:connector-curvature="0" />
    <path
       id="path5280"
       style="fill:#000000;stroke:#1c1c1a;stroke-width:0.64681667;stroke-linecap:round;stroke-linejoin:round;stroke-miterlimit:10;stroke-opacity:1;stroke-dasharray:none"
       d="m 267.19923,127.44469 -19.0908,-11.37104 m 4.45334,-7.95746 -4.45334,7.95746 m 29.08735,-6.48918 -11.13333,19.84918 m 35.76734,-18.33402 -17.76482,31.64551 m 42.35194,-30.12872 -24.39793,43.48872 m 49.03194,-41.97355 -31.02941,55.33193 m 55.66342,-53.81515 -37.70941,67.17515 m 62.43721,-65.94458 -44.43468,79.25606 m 63.62088,-68.07583 -45.66687,81.43421 m 59.26296,-60.21054 -41.30895,73.57054 m 54.76273,-52.25308 -36.80872,65.61146 m 50.35791,-44.43468 -32.35538,57.74779 m 45.95147,-36.52574 -27.99746,49.88412 m 41.59355,-28.70734 -23.59102,42.01882 m 37.14021,-20.84366 -19.13931,34.20366 m 32.73539,-13.0285 -14.78137,26.38688 m 28.33057,-5.16321 -10.37494,18.52321 m 23.97102,2.65357 -4.88023,8.66896 M 285.15486,140.75618 266.06245,129.43365 m 37.09331,24.68091 -19.09079,-11.36942 m 55.04733,38.0878 -19.09079,-11.36942 m 1.08988,-1.98896 -19.09241,-11.36942 m 55.04733,38.03928 -19.09079,-11.3209 m 37.04642,24.6809 -19.04389,-11.36942 m 37.0448,24.7278 -19.09079,-11.36942 m 37.04642,24.72942 -19.09241,-11.36942 m 37.09332,24.68091 -19.13931,-11.32253 m 37.09332,24.68253 -19.09079,-11.36942 m 37.09332,24.6809 -19.13931,-11.32252 m 37.09332,24.6809 -19.09079,-11.36942 m 37.0917,24.72942 -19.0908,-11.36942 m 37.04643,24.7278 -19.09241,-11.36942 m 37.04642,24.68253 -19.09079,-11.32253 m 23.97102,2.65357 -19.09241,-11.36942 m 5.49633,-9.80736 -19.0439,-11.36942 m 5.4947,-9.85425 -19.09241,-11.32091 m 5.49633,-9.85425 -19.09241,-11.32253 m 5.54322,-9.85263 -19.0908,-11.32253 m 5.49471,-9.85425 -19.09079,-11.36942 m 5.4947,-9.85263 -19.04389,-11.32253 m 5.4947,-9.85425 -19.09079,-11.36942 m -8.05287,-31.02941 -19.09241,-11.32253 m 32.78229,32.4039 -19.0908,-11.36942 M 271.65418,119.4371 252.56177,108.11619 m 43.7248,12.8377 -19.09079,-11.36942 m 43.67791,12.88458 -19.0439,-11.36942 m 43.67791,12.83932 -19.09079,-11.32253 m 43.7248,12.83769 -19.09079,-11.32252 m 43.7248,12.83769 -19.09079,-11.32091"
       inkscape:connector-curvature="0" />
    <path
       id="path5282"
       style="fill:#000000;fill-opacity:1;fill-rule:nonzero;stroke:none"
       d="m 321.26178,147.57524 4.0135,0 0,-0.2183 c -1.09151,0 -1.38258,-0.16009 -1.38258,-0.85865 l 0,-8.72555 -0.11642,-0.0291 -2.61638,1.32274 0,0.20375 c 0.81338,-0.32018 0.81338,-0.32018 0.98802,-0.32018 0.49481,0 0.49481,0.37839 0.49481,0.68401 l 0,6.58783 c 0,1.07695 -0.53847,1.10606 -1.38095,1.13516 l 0,0.2183"
       inkscape:connector-curvature="0" />
    <path
       id="path5284"
       style="fill:#000000;fill-opacity:1;fill-rule:nonzero;stroke:none"
       d="m 347.15708,152.35522 -0.1892,-0.0727 c -0.56596,0.91686 -0.84248,0.96052 -1.38095,0.96052 l -3.47664,0 2.44335,-2.55978 c 0.64035,-0.68401 1.86283,-2.00675 1.86283,-3.54779 0,-1.62998 -1.3098,-2.61799 -2.63254,-2.61799 -1.2807,0 -2.6471,0.69856 -3.0837,2.89289 l 0.30562,0.0744 c 0.32018,-0.78588 0.75678,-1.89194 2.07952,-1.89194 1.71568,0 2.07951,1.33891 2.07951,2.08114 0,1.08988 -0.62418,2.39969 -1.89032,3.75153 l -2.58888,2.74897 0,0.17464 5.67258,0 0.79882,-1.99381"
       inkscape:connector-curvature="0" />
    <path
       id="path5286"
       style="fill:#000000;fill-opacity:1;fill-rule:nonzero;stroke:none"
       d="m 364.71653,157.36643 c 1.00418,-0.0291 1.3664,0.0436 1.89032,0.32017 0.93142,0.48027 1.10606,1.5556 1.10606,1.91943 0,1.09151 -0.59669,2.2396 -1.94854,2.2396 -0.85864,0 -1.41167,-0.81337 -2.08113,-0.81337 -0.23285,0 -0.56596,0.10026 -0.56596,0.50775 0,0.76001 1.26452,0.83116 1.61381,0.83116 2.28326,0 4.02805,-1.28069 4.02805,-3.34727 0,-1.91943 -1.23542,-2.4288 -1.84667,-2.68914 0.95891,-0.6258 1.35185,-1.25159 1.35185,-2.03748 0,-0.59507 -0.39294,-1.96308 -2.26871,-1.96308 -0.97346,0 -2.26871,0.45115 -2.84923,2.35603 l 0.21831,0.0582 c 0.2183,-0.4075 0.82792,-1.54104 2.15066,-1.54104 1.07695,0 1.60087,0.77133 1.60087,1.51193 0,1.33891 -1.0915,2.03586 -2.41424,2.45791 l 0.0146,0.18919"
       inkscape:connector-curvature="0" />
    <path
       id="path5288"
       style="fill:#000000;fill-opacity:1;fill-rule:nonzero;stroke:none"
       d="m 391.00317,164.39733 -1.48282,0 0,-6.4714 -0.64035,0 -4.56653,6.4714 0,0.9298 4.08627,0 0,2.43041 1.12061,0 0,-2.43041 1.48282,0 0,-0.9298 z m -2.61799,0 -3.48957,0 3.46047,-4.94492 0.0291,0 0,4.94492"
       inkscape:connector-curvature="0" />
    <path
       id="path5290"
       style="fill:#000000;fill-opacity:1;fill-rule:nonzero;stroke:none"
       d="m 404.40685,177.23179 2.85085,0 c 0.16008,0 0.29106,0 0.33472,-0.13098 l 0.55303,-1.29364 -0.13098,-0.10194 c -0.16009,0.2183 -0.29107,0.37839 -0.66945,0.37839 l -3.04004,0 -1.5847,3.44592 c -0.0436,0.10194 0,0.18919 0.0873,0.18919 1.57014,0.0582 4.14447,0.74222 4.14447,3.06915 0,1.77389 -1.07695,2.58888 -2.0213,2.58888 -0.78588,0 -1.17882,-0.90231 -2.10862,-0.90231 -0.58214,0 -0.58214,0.42205 -0.58214,0.56758 0,0.52231 0.68401,0.87482 1.83211,0.87482 2.29782,0 3.89869,-1.54427 3.89869,-3.47825 0,-1.29526 -0.16009,-1.71569 -0.78588,-2.47246 -0.85865,-1.04784 -2.22505,-1.29525 -3.38932,-1.499 l 0.61124,-1.23542"
       inkscape:connector-curvature="0" />
    <path
       id="path5292"
       style="fill:#000000;fill-opacity:1;fill-rule:nonzero;stroke:none"
       d="m 420.86993,193.73046 c -3.51868,0.11643 -5.99114,2.75382 -5.99114,5.70169 0,3.05459 1.48283,4.43716 3.19851,4.43716 2.58888,0 3.1128,-2.31398 3.1128,-3.37638 0,-1.94854 -1.13516,-3.05297 -2.6762,-3.05297 -0.81499,0 -1.11899,0.17464 -1.91943,0.6549 0.27652,-1.77066 1.71568,-3.72567 4.30457,-4.13154 l -0.0291,-0.23286 z m -2.96727,4.37895 c 1.54104,0 1.97764,1.45372 1.97764,2.9511 0,1.64453 -0.66784,2.39969 -1.5847,2.39969 -1.0915,0 -2.06496,-1.07533 -2.06496,-3.51868 0,-0.8732 0.14553,-1.22249 0.29106,-1.36802 0.36384,-0.34928 0.88614,-0.46409 1.38096,-0.46409"
       inkscape:connector-curvature="0" />
    <path
       id="path5294"
       style="fill:#000000;fill-opacity:1;fill-rule:nonzero;stroke:none"
       d="m 437.7389,211.99171 -5.38151,0 -0.23286,0.63873 -0.62579,1.499 0.2474,0.11643 c 0.48026,-0.75678 0.74223,-1.17882 1.68658,-1.17882 l 3.15646,0 -2.87995,8.67057 0.94597,0 3.0837,-9.51467 0,-0.23124"
       inkscape:connector-curvature="0" />
    <path
       id="path5296"
       style="fill:#000000;fill-opacity:1;fill-rule:nonzero;stroke:none"
       d="m 450.17072,236.17295 c 1.67202,1.19176 2.28326,1.62836 2.28326,2.70531 0,1.01712 -0.68401,1.62836 -1.59925,1.62836 -1.17883,0 -1.84828,-0.94596 -1.84828,-2.06496 0,-1.32435 0.69856,-1.89032 1.16427,-2.26871 z m -2.26871,2.41425 c 0,1.13354 0.9589,2.32854 2.76352,2.32854 2.41425,0 2.89289,-1.6316 2.89289,-2.38676 0,-0.97507 -0.304,-1.81755 -2.25416,-3.21468 0.78589,-0.42204 1.95016,-1.03167 1.95016,-2.37058 0,-1.10444 -0.90231,-2.06496 -2.54523,-2.06496 -1.25159,0 -2.71986,0.78588 -2.71986,2.25415 0,1.17721 0.58052,1.67203 1.803,2.74898 -1.29363,0.98963 -1.89032,1.43916 -1.89032,2.70531 z m 1.16265,-5.83267 c 0,-0.69695 0.46571,-1.46828 1.55721,-1.46828 1.11899,0 1.62836,0.78589 1.62836,1.5847 0,1.2807 -0.81499,1.81756 -1.3664,2.18139 -0.52392,-0.33472 -1.81917,-1.16265 -1.81917,-2.29781"
       inkscape:connector-curvature="0" />
    <path
       id="path5298"
       style="fill:#000000;fill-opacity:1;fill-rule:nonzero;stroke:none"
       d="m 463.37548,257.8494 c 3.69332,-0.23286 5.8165,-2.998 5.8165,-6.0817 0,-2.42718 -1.39551,-4.07171 -3.18396,-4.07171 -1.89032,0 -3.05459,1.57177 -3.05459,3.50575 0,1.19176 0.66945,2.87995 2.61799,2.87995 0.72767,0 1.49738,-0.26196 2.13773,-0.80044 l 0.0291,0.0291 c -0.0873,0.36383 -0.88776,3.66422 -4.40644,4.24797 l 0.0436,0.29107 z m 4.40644,-5.48501 c 0,0.26196 -0.0436,0.4366 -0.23286,0.58214 -0.30562,0.2474 -0.91686,0.50936 -1.39551,0.50936 -1.54265,0 -1.86121,-1.70112 -1.86121,-2.80718 0,-1.19176 0.33311,-2.54522 1.55559,-2.54522 1.93399,0 1.93399,2.83629 1.93399,3.69494 l 0,0.56596"
       inkscape:connector-curvature="0" />
    <g
       id="g9859"
       transform="matrix(-1,0,0,1,960.46952,0)">
      <path
         inkscape:connector-curvature="0"
         d="m 486.4345,274.29794 -4.0135,0 0,-0.2183 c 1.0915,0 1.38095,-0.16008 1.38095,-0.85703 l 0,-8.72717 0.11643,-0.0276 2.61799,1.32274 0,0.20375 c -0.81499,-0.32017 -0.81499,-0.32017 -0.98801,-0.32017 -0.49482,0 -0.49482,0.37838 -0.49482,0.684 l 0,6.58783 c 0,1.07533 0.53848,1.10444 1.38096,1.13355 l 0,0.2183"
         style="fill:#000000;fill-opacity:1;fill-rule:nonzero;stroke:none"
         id="path5300" />
      <path
         inkscape:connector-curvature="0"
         d="m 477.22059,264.84472 c -1.86121,0 -1.89194,3.65128 -1.89194,4.63929 0,1.14972 0.0308,4.63929 1.89194,4.63929 1.86122,0 1.89032,-3.46047 1.89032,-4.63929 0,-0.98801 -0.0291,-4.63929 -1.89032,-4.63929 z m 0,-0.37677 c 2.67621,0 3.28583,3.30038 3.28583,5.01606 0,1.76096 -0.60962,5.02091 -3.28583,5.02091 -2.6762,0 -3.28744,-3.25995 -3.28744,-5.02091 0,-1.71568 0.61124,-5.01606 3.28744,-5.01606"
         style="fill:#000000;fill-opacity:1;fill-rule:nonzero;stroke:none"
         id="path5302" />
    </g>
    <g
       id="g9863"
       transform="matrix(-1,0,0,1,994.34977,0)">
      <path
         inkscape:connector-curvature="0"
         d="m 502.77793,290.02529 -4.01349,0 0,-0.21668 c 1.0915,0 1.38095,-0.16009 1.38095,-0.85865 l 0,-8.72556 0.11643,-0.0291 2.61799,1.32274 0,0.20375 c -0.81337,-0.32017 -0.81337,-0.32017 -0.98801,-0.32017 -0.49482,0 -0.49482,0.37839 -0.49482,0.68401 l 0,6.58782 c 0,1.07534 0.53848,1.10444 1.38095,1.13517 l 0,0.21668"
         style="fill:#000000;fill-opacity:1;fill-rule:nonzero;stroke:none"
         id="path5304" />
      <path
         inkscape:connector-curvature="0"
         d="m 495.48346,290.02529 -4.0135,0 0,-0.21668 c 1.08989,0 1.38096,-0.16009 1.38096,-0.85865 l 0,-8.72556 0.11642,-0.0291 2.61799,1.32274 0,0.20375 c -0.81499,-0.32017 -0.81499,-0.32017 -0.98801,-0.32017 -0.49481,0 -0.49481,0.37839 -0.49481,0.68401 l 0,6.58782 c 0,1.07534 0.53685,1.10444 1.38095,1.13517 l 0,0.21668"
         style="fill:#000000;fill-opacity:1;fill-rule:nonzero;stroke:none"
         id="path5306" />
    </g>
    <g
       id="g9867"
       transform="matrix(-1,0,0,1,1028.0376,0)">
      <path
         inkscape:connector-curvature="0"
         d="m 520.21126,306.84414 -4.0135,0 0,-0.2183 c 1.09151,0 1.38096,-0.16009 1.38096,-0.85865 l 0,-8.72556 0.11642,-0.0291 2.61799,1.32274 0,0.20374 c -0.81337,-0.32017 -0.81337,-0.32017 -0.98801,-0.32017 -0.49481,0 -0.49481,0.37839 -0.49481,0.68401 l 0,6.58783 c 0,1.07695 0.53847,1.10605 1.38095,1.13516 l 0,0.2183"
         style="fill:#000000;fill-opacity:1;fill-rule:nonzero;stroke:none"
         id="path5308" />
      <path
         inkscape:connector-curvature="0"
         d="m 507.72447,304.85033 0.18919,-0.0727 c 0.56758,0.91686 0.84409,0.96052 1.38257,0.96052 l 3.47502,0 -2.44335,-2.55978 c -0.64035,-0.68401 -1.86121,-2.00675 -1.86121,-3.54779 0,-1.62998 1.30818,-2.61799 2.63254,-2.61799 1.27908,0 2.6471,0.69856 3.08208,2.89289 l -0.304,0.0744 c -0.32018,-0.78588 -0.75678,-1.89194 -2.07952,-1.89194 -1.7173,0 -2.08113,1.33891 -2.08113,2.08114 0,1.08988 0.6258,2.39969 1.89194,3.75153 l 2.58727,2.74897 0,0.17464 -5.67097,0 -0.80043,-1.99381"
         style="fill:#000000;fill-opacity:1;fill-rule:nonzero;stroke:none"
         id="path5310" />
    </g>
    <g
       id="g9871"
       transform="matrix(-1,0,0,1,1059.1883,0)">
      <path
         inkscape:connector-curvature="0"
         d="m 535.46643,322.52459 -4.0135,0 0,-0.2183 c 1.09151,0 1.38096,-0.16008 1.38096,-0.85865 l 0,-8.72555 0.11642,-0.0291 2.618,1.32436 0,0.20213 c -0.81499,-0.31856 -0.81499,-0.31856 -0.98802,-0.31856 -0.49481,0 -0.49481,0.37677 -0.49481,0.68239 l 0,6.58783 c 0,1.07695 0.53847,1.10606 1.38095,1.13516 l 0,0.2183"
         style="fill:#000000;fill-opacity:1;fill-rule:nonzero;stroke:none"
         id="path5312" />
      <path
         inkscape:connector-curvature="0"
         d="m 527.66259,317.72521 c -1.00257,-0.0291 -1.3664,0.0437 -1.89032,0.32018 -0.93142,0.48026 -1.10444,1.55559 -1.10444,1.91943 0,1.08988 0.59507,2.2396 1.94853,2.2396 0.85703,0 1.41006,-0.81499 2.07952,-0.81499 0.23285,0 0.56758,0.10194 0.56758,0.50937 0,0.75839 -1.26614,0.83116 -1.61542,0.83116 -2.28327,0 -4.02806,-1.28232 -4.02806,-3.34728 0,-1.91943 1.23542,-2.4288 1.84667,-2.69076 -0.95891,-0.62417 -1.35185,-1.24997 -1.35185,-2.03585 0,-0.59507 0.39294,-1.96309 2.26871,-1.96309 0.97346,0 2.26871,0.45115 2.84923,2.35603 l -0.21669,0.0582 c -0.2183,-0.40749 -0.82954,-1.54104 -2.15228,-1.54104 -1.07695,0 -1.60087,0.76971 -1.60087,1.51194 0,1.33891 1.0915,2.03585 2.41424,2.4579 l -0.0146,0.18919"
         style="fill:#000000;fill-opacity:1;fill-rule:nonzero;stroke:none"
         id="path5314" />
    </g>
  </g>
</svg>
